<svg id="Layer_1" data-name="Layer 1" xmlns="http://www.w3.org/2000/svg" xmlns:xlink="http://www.w3.org/1999/xlink" viewBox="0 0 585.74 122.1"><defs><style>.cls-1{fill:none;}.cls-2{fill:#fff;}.cls-3{clip-path:url(#clip-path);}</style><clipPath id="clip-path" transform="translate(-54.62 -115.56)"><rect class="cls-1" x="33" y="93.93" width="143.23" height="151.22"/></clipPath></defs><title>Priceoye_logo_white</title><path class="cls-2" d="M283.78,148.17v16.09c-12.12-1.89-21.87,5.4-21.58,17.92V212.1H247.74v-63H262.2v9.47h.19a24.11,24.11,0,0,1,21.39-10.35" transform="translate(-54.62 -115.56)"/><path class="cls-2" d="M292,136.84c-8.93-9.25,4.63-22.35,13.78-13.54,9,9.24-4.75,22.25-13.78,13.54m-.38,12.21h14.45v63H291.61Z" transform="translate(-54.62 -115.56)"/><path class="cls-2" d="M332.57,209.07C317,201,312.85,178.38,321.15,163.72c10.35-19.54,41.4-20.61,55-3.88l-9.84,8.52c-11.56-13.56-35.35-7-34.59,12.18-.59,19.34,22.56,25.66,34.72,12.62l10,8.84c-10,11.38-30.41,14.57-43.8,7.07" transform="translate(-54.62 -115.56)"/><path class="cls-2" d="M514.67,173.91H499.53c4.11,12.13-4,26.44-17.38,26.07-13.43.48-21.54-14.1-17.43-26.07H449.61c-8,52.19,73.08,52.29,65.06,0" transform="translate(-54.62 -115.56)"/><polygon class="cls-2" points="524.56 33.49 489.92 122.1 474.71 122.1 486.07 93 460.44 33.49 475.65 33.49 493.07 76.03 493.2 76.03 509.42 33.49 524.56 33.49"/><path d="M180.55,150.19c0,.52,0,1.06,0,1.57v-2.48c0,.31,0,.61,0,.91" transform="translate(-54.62 -115.56)"/><path class="cls-2" d="M235.15,134.6c-9.71-19.27-41.52-19-51,.28a31.87,31.87,0,0,0-3.56,14.4v62.83h15V176.73c28.86,13.19,53.06-14.57,39.54-42.13m-14.83,26.86c-5.59,6.12-16.45,6.08-21.94-.09-5.8-5.84-5.74-17.32,0-23.17,5.27-6.15,16.59-6.19,22-.09,5.8,5.66,5.88,17.67-.05,23.35" transform="translate(-54.62 -115.56)"/><path class="cls-2" d="M498.74,156.12a4.75,4.75,0,0,1,3.35,5.83l7.58,2.05c3.82-16.23-19.5-22.51-24.35-6.57l7.58,2a4.76,4.76,0,0,1,5.84-3.35" transform="translate(-54.62 -115.56)"/><path class="cls-2" d="M462.16,162c-1.48-6.1,7.4-8.5,9.2-2.48l7.57-2c-4.85-16-28.17-9.65-24.34,6.57Z" transform="translate(-54.62 -115.56)"/><path class="cls-2" d="M441.87,179.85c1.18-35-46.23-44.08-59-12.51-5.75,14.7-1,34.34,13.43,41.79,13.35,7.38,32.5,4,42.55-7.16-.1-.05-9.89-8.76-10-8.84-9.66,11.13-30.68,8.39-33.3-7.54h45.92a36.08,36.08,0,0,0,.38-5.74m-46.07-5.93c3.58-16.67,28.36-17.09,31.57,0Z" transform="translate(-54.62 -115.56)"/><path class="cls-2" d="M640.35,179.85c1.17-35-46.23-44.08-59-12.51-5.74,14.7-1,34.34,13.43,41.79,13.35,7.38,32.51,4,42.56-7.16-.11-.05-9.89-8.76-10-8.84-9.67,11.13-30.69,8.39-33.31-7.54H640a34.79,34.79,0,0,0,.39-5.74m-46.08-5.93c3.59-16.67,28.37-17.09,31.58,0Z" transform="translate(-54.62 -115.56)"/><g class="cls-3"><path class="cls-2" d="M140.77,151.14c-2.34-47.48-70-47.41-72.28,0H54.62L61,207.64c1,9,6.42,15.89,17.67,15.87h52c11.22,0,16.64-6.77,17.67-13.87l6.33-58.5ZM82.06,207c-.18-7.56-.76-31.2-.91-38.33,0-7.7-1.49-19.66,1.77-26.85a23.89,23.89,0,0,1,20.6-14.07c39.65,1.42,27.73,59.25-8.92,45.36.3,8.36,1,25.34,1.27,33.89Z" transform="translate(-54.62 -115.56)"/><path class="cls-2" d="M100.92,161.83A11,11,0,0,0,115.59,151c-.26-8.08-9.58-13.18-16.51-9a11,11,0,0,0,1.84,19.8" transform="translate(-54.62 -115.56)"/></g></svg>